<svg version="1.2" xmlns="http://www.w3.org/2000/svg" viewBox="0 0 2572 568" width="163" height="36">
	<style>
		.s0 { fill: #000000 } 
		.s1 { fill: #fec267 } 
		.s2 { fill: #3a0176 } 
		.s3 { fill: #ffffff } 
		.s4 { fill: #a7a7b5 } 
		.s5 { fill: #ef2052 } 
		.s6 { fill: #f48eb5 } 
		.s7 { fill: #a56856 } 
		.s8 { fill: #ff0068 } 
	</style>
	<g id="_Artboards_">
	</g>
	<g id="Layer 1">
		<g id="&lt;Group&gt;">
			<g id="&lt;Group&gt;">
				<path id="Aumiau" fill-rule="evenodd" class="s0" d="m906.85 321l-20.24-72.16q-40.04 4.48-79.64 4.48-22.82 0-47.36-1.22l-18.95 66.45-51.66-3.26q48.65-156.55 117.1-308.21 42.2-4.08 75.78-4.08 52.95 122.31 117.1 309.85-47.79 8.15-92.13 8.15zm-135.62-109.26q34.44 3.67 74.91 3.67l30.57-0.41q-29.71-102.74-52.95-164.3-19.38 50.15-52.53 161.04zm325.91 107.22q-48.22 0-72.33-41.18-23.68-41.17-23.68-124.75 0-27.72 2.59-59.52 18.51-1.63 74.05-1.63-2.58 40.77-2.58 72.57 0 62.78 10.33 92.54 10.76 29.36 32.72 29.36 14.21 0 29.27-11.42 15.07-11.41 25.84-30.17l-0.87-154.92q37.03 0 74.06 1.63 0 164.71-2.16 224.64-29.7 1.63-69.74 1.63l-0.86-25.28q-37.03 26.5-76.64 26.5zm474.45-0.41q2.58-34.24 2.58-75.42 0-63.19-8.18-93.36-7.75-30.58-24.11-30.58-11.19 0-24.54 12.64-12.92 12.64-20.67 31.39 6.46 38.33 6.46 100.3 0 26.9-1.29 52.59-34.44 1.63-74.05 1.63 2.58-43.62 2.58-93.77 0-39.14-2.58-61.56-2.15-22.83-7.75-33.03-5.17-10.19-14.64-10.19-11.62 0-24.97 13.05-13.35 12.64-21.96 32.21l0.86 153.29q-41.33 0-69.74-1.63 0-170.01 2.15-226.27 25.83 0 65.44 1.63l0.86 23.24q34.88-28.13 70.61-28.13 18.51 0 31.43 7.74 13.35 7.34 22.39 23.24 16.36-15.08 35.3-22.83 18.94-8.15 38.75-8.15 46.06 0 68.02 45.25 22.39 45.25 22.39 139.43 0 19.57-1.29 44.03-26.27 3.26-74.05 3.26zm183.4-311.47v55.04h-73.19v-55.04zm-71.47 310.66q-2.15-59.93-2.15-223.82 41.33 0 74.05 1.63 0 157.37-2.15 220.56-34.87 1.63-69.75 1.63zm277.7 0l-0.44-25.69q-44.34 26.91-88.25 26.91-36.6 0-59.85-16.71-22.82-17.13-22.82-44.44 0-24.46 18.95-45.66 19.37-21.61 53.38-36.29 34.45-15.08 77.93-20.79-15.5-35.88-42.62-35.88-16.36 0-42.2 11.83-25.83 11.82-52.52 30.98l-12.92-40.77q64.15-34.65 121.41-34.65 44.78 0 71.9 23.24 27.13 22.83 39.61 72.97 12.49 50.15 12.49 133.32-22.39 1.63-74.05 1.63zm-100.32-62.79q0 12.64 10.33 19.98 10.77 7.34 28.42 7.34 30.57 0 59.84-25.28-2.58-41.58-9.9-72.97-21.96 4.07-42.62 15.49-20.24 11.41-33.15 26.5-12.92 15.08-12.92 28.94zm296.21 64.01q-48.22 0-72.33-41.18-23.68-41.17-23.68-124.75 0-27.72 2.58-59.52 18.51-1.63 74.05-1.63-2.58 40.77-2.58 72.57 0 62.78 10.33 92.54 10.77 29.36 32.72 29.36 14.21 0 29.28-11.42 15.07-11.41 25.83-30.17l-0.86-154.92q37.02 0 74.05 1.63 0 164.71-2.15 224.64-29.71 1.63-69.75 1.63l-0.86-25.28q-37.03 26.5-76.63 26.5z"/>
				<path id="Pet Store" fill-rule="evenodd" class="s0" d="m850.41 567.12q0-177.76-1.41-221.31 31.85-4.71 56.1-4.71 32.98 0 57.22 8.53 24.25 8.24 37.21 24.14 12.97 15.89 12.97 37.37 0 22.66-14.37 41.2-14.1 18.25-39.75 29.14-25.37 10.89-57.79 12.06l0.56 72.4q-17.19 1.18-50.74 1.18zm46.23-202.77q2.26 35.61 3.67 105.36 60.04-8.54 60.04-52.39 0-24.42-17.2-38.55-17.19-14.42-46.51-14.42zm194.32 203.65q-22.55 0-41.15-10.89-18.33-10.89-28.76-30.02-10.43-19.42-10.43-43.26 0-23.54 10.15-42.67 10.43-19.13 28.47-30.02 18.33-10.89 40.6-10.89 21.14 0 38.34 10.01 17.19 9.71 27.62 27.66 10.71 17.66 12.69 41.2l-111.92 21.78q5.64 19.42 17.2 31.2 11.56 11.77 25.65 11.77 13.25 0 26.22-9.42 12.97-9.71 20.01-24.72l20.02 17.66q-13.82 19.42-33.27 30.02-19.45 10.59-41.44 10.59zm-38.05-95.94v2.94l65.68-9.41q-1.97-18.84-11.56-30.32-9.58-11.47-23.4-11.47-14.37 0-22.55 12.95-8.17 12.65-8.17 35.31zm154.76 95.06q-1.13-32.96-1.13-140.09h-30.72l-1.7-27.07h32.14v-56.21q21.43 0 48.49 1.18v55.03h32.13l-1.69 27.07h-30.72q0 105.36-1.13 138.91-16.92 1.18-45.67 1.18zm292.9 0.88q-23.12 0-48.21-9.71-24.81-9.71-40.03-24.72 14.38-21.19 31.86-39.14 17.47 19.42 38.33 32.96 20.86 13.24 37.21 13.24 10.72 0 18.33-5.89 7.89-5.88 7.89-16.48 0-9.71-7.33-17.65-7.05-7.95-17.76-14.13-10.43-6.47-28.47-15.3-21.42-10.6-34.96-18.84-13.24-8.24-22.55-19.71-9.3-11.78-9.3-26.79 0-16.18 10.71-30.9 10.71-15.01 29.6-24.13 18.89-9.42 42-9.42 20.87 0 41.73 7.66 20.86 7.35 36.36 20.89-4.79 9.12-13.25 18.84-8.17 9.71-17.19 17.36-19.46-19.13-35.81-29.72-16.06-10.6-30.16-10.6-10.43 0-16.35 5.59-5.64 5.3-5.64 12.36 0 9.42 10.72 17.07 10.71 7.65 34.1 18.84 23.12 11.18 38.06 20.6 15.22 9.41 25.94 23.25 10.71 13.83 10.71 32.07 0 19.13-11.84 35.91-11.84 16.77-31.86 26.78-19.73 9.71-42.84 9.71zm120.55-0.88q-1.12-32.96-1.12-140.09h-30.73l-1.69-27.07h32.13v-56.21q21.43 0 48.49 1.18v55.03h32.14l-1.69 27.07h-30.73q0 105.36-1.13 138.91-16.91 1.18-45.67 1.18zm162.47 0.88q-21.99 0-40.31-10.89-18.04-10.89-28.75-29.43-10.43-18.83-10.43-41.2 0-23.54 11.27-43.26 11.28-19.72 30.45-31.2 19.45-11.77 42.28-11.77 21.99 0 40.03 10.89 18.33 10.89 28.76 29.73 10.71 18.54 10.71 40.9 0 23.55-11.28 43.26-11.27 19.72-30.72 31.49-19.17 11.48-42.01 11.48zm8.18-23.84q14.94 0 23.4-13.24 8.45-13.54 8.45-37.38 0-19.71-5.64-35.31-5.63-15.89-15.78-25.02-9.87-9.12-22.27-9.12-14.94 0-23.4 13.54-8.46 13.24-8.46 37.08 0 19.72 5.64 35.61 5.64 15.6 15.51 24.72 10.14 9.12 22.55 9.12zm202.4-71.22q0-12.95-3.38-24.13-3.1-11.48-8.74-18.24-5.36-6.77-11.56-6.77-7.61 0-16.91 9.71-9.3 9.71-14.94 23.84-0.57 78.57-1.41 109.77-16.92 0-45.67-1.18-1.41-39.14-1.41-162.16 24.81-1.17 48.49-1.17v17.07q10.99-9.13 22.83-14.13 11.84-5.3 22.55-5.3 14.1 0 25.94 8.24 12.12 7.95 19.45 22.08 7.61 13.83 8.74 30.9-23.68 7.94-43.98 11.47zm132.31 95.06q-22.55 0-41.16-10.89-18.32-10.89-28.75-30.02-10.43-19.42-10.43-43.26 0-23.54 10.14-42.67 10.43-19.13 28.48-30.02 18.32-10.89 40.59-10.89 21.14 0 38.34 10.01 17.19 9.71 27.62 27.66 10.72 17.66 12.69 41.2l-111.91 21.78q5.63 19.42 17.19 31.2 11.56 11.77 25.65 11.77 13.25 0 26.22-9.42 12.97-9.71 20.02-24.72l20.01 17.66q-13.81 19.42-33.26 30.02-19.45 10.59-41.44 10.59zm-38.06-95.94v2.94l65.68-9.41q-1.97-18.84-11.55-30.32-9.59-11.47-23.4-11.47-14.38 0-22.55 12.95-8.18 12.65-8.18 35.31z"/>
			</g>
			<g id="&lt;Group&gt;">
				<g id="&lt;Group&gt;">
					<path id="&lt;Path&gt;" class="s1" d="m282.01 535.03c-8.26 2.14-15.75 3.2-22.53 3.36-39.86 0.94-55.7-28.79-61.69-47.37-2.7-8.37-3.4-14.49-3.4-14.49l45.45-27.39c19.47-7.43 25.58 30.64 38.58 46.89 12.99 16.24 3.59 39 3.59 39z"/>
				</g>
				<g id="&lt;Group&gt;">
					<path id="&lt;Path&gt;" class="s2" d="m257.61 543.29c-13.92 0-26.16-3.58-36.56-10.71-26.98-18.5-31.33-53.99-31.5-55.49-0.31-2.68 1.61-5.09 4.28-5.4 2.7-0.32 5.09 1.61 5.4 4.29 0.07 0.59 4.18 32.73 27.39 48.6 13.39 9.16 30.76 11.3 51.65 6.36 1.74-5.65 5.18-20.83-3.66-31.87-4.67-5.84-8.39-13.98-11.99-21.85-7.64-16.72-12.87-26.64-21.03-23.52-2.52 0.96-5.34-0.3-6.3-2.82-0.96-2.51 0.3-5.33 2.82-6.29 5.45-2.09 13.58-2.6 21.31 6.76 4.69 5.67 8.44 13.88 12.07 21.82 3.35 7.33 6.81 14.91 10.74 19.81 14.63 18.28 4.72 42.87 4.29 43.91-0.59 1.42-1.8 2.47-3.28 2.86q-13.63 3.54-25.63 3.54z"/>
				</g>
				<g id="&lt;Group&gt;">
					<path id="&lt;Path&gt;" class="s1" d="m79.25 367.56c-25.47-3.03-41.96-17.7-50.69-42.43-2.56-7.26-12.26-8.6-16.52-2.2-16.94 25.46-0.8 66.06 31 88.07z"/>
				</g>
				<g id="&lt;Group&gt;" style="opacity: .3">
					<path id="&lt;Path&gt;" class="s2" d="m79.25 367.56l-36.21 43.44c-31.8-22-47.94-62.62-31-88.06q0.93-1.4 2.16-2.3c-7.33 25.04 8.48 58.09 36.04 77.17l25.63-30.73q1.67 0.28 3.38 0.48z"/>
				</g>
				<g id="&lt;Group&gt;" style="opacity: .7">
					<path id="&lt;Path&gt;" class="s3" d="m79.25 367.56l-36.21 43.44q-0.14-0.1-0.29-0.21l31.39-37.66c-25.46-3.03-41.96-17.7-50.69-42.43-1.98-5.59-8.17-7.66-12.86-5.41q0.67-1.2 1.45-2.35c4.26-6.41 13.95-5.07 16.52 2.19 8.73 24.73 25.22 39.4 50.69 42.43z"/>
				</g>
				<g id="&lt;Group&gt;">
					<path id="&lt;Path&gt;" class="s2" d="m43.04 415.88c-0.96 0-1.93-0.28-2.77-0.87-35.39-24.49-50.18-67.9-32.29-94.78 2.97-4.47 8.12-6.84 13.46-6.17 5.4 0.67 9.89 4.29 11.71 9.44 8.35 23.65 23.62 36.48 46.68 39.22 2.67 0.32 4.58 2.75 4.26 5.42-0.32 2.67-2.73 4.59-5.41 4.26-26.74-3.18-45.15-18.54-54.72-45.65-0.59-1.67-1.98-2.8-3.73-3.02-0.8-0.1-2.8-0.11-4.14 1.9-14.75 22.18-0.86 60.2 29.73 81.37 2.21 1.53 2.76 4.57 1.23 6.78-0.95 1.37-2.47 2.1-4.01 2.1z"/>
				</g>
				<g id="&lt;Group&gt;">
					<path id="&lt;Path&gt;" class="s1" d="m355.02 299.51l-4.76 62.7c0 0-38.73 18.63-71.88 54.03-9.5 10.14-18.54 21.67-26.08 34.53-26.1 44.52-82.15 43.15-106.43 40.19-3.83-0.46-6.85-0.97-8.86-1.35-1.77-0.32-2.74-0.54-2.74-0.54l2.09 8.7c25.76 9.06 30.99 42.83 12.53 52.23-18.45 9.4-53.27 12.19-87.39-12.18-8.93-6.37-14.89-13.28-18.82-20.02-11.14-19.02-6.14-36.63-6.14-36.63-25.07-80.31 21.36-117.45 66.85-154.6 45.5-37.13 49.68-61.39 49.68-61.39h171.24z"/>
				</g>
				<g id="&lt;Group&gt;" style="opacity: .3">
					<path id="&lt;Path&gt;" class="s2" d="m161.75 284.35c0 0 36.15 56.16 116.29 37.58 6.64-1.54 13.59 0.33 18.62 4.94 8.85 8.13 27.25 20.58 62.04 28.49 55.21 12.57-24.57-78.92-32.46-78.92-7.89 0-30.94 1.39-55.4 4.18-24.45 2.78-37.01 5.86-39.78 4.79"/>
				</g>
				<g id="&lt;Group&gt;" style="opacity: .7">
					<path id="&lt;Path&gt;" class="s3" d="m330.19 271.75h-169.7c0 0-4.17 24.27-49.66 61.41-45.5 37.13-91.93 74.28-66.86 154.6 0 0-7.25 25.51 15.16 48.3-31.33-24.14-22.59-54.89-22.59-54.89-25.07-80.31 21.36-117.45 66.85-154.6 45.5-37.13 49.68-61.39 49.68-61.39h171.24z"/>
				</g>
				<g id="&lt;Group&gt;">
					<path id="&lt;Path&gt;" class="s3" d="m167.4 419.27c0 0 42.91-55.44 101.34-41.33l0.61 3.63c-14.41 25.21-22.86 51.48-23.89 79.07-29.49 25.9-65.4 35.86-108.29 28.43l-1.63-10.91c16.45-16.95 29.24-35.59 31.86-58.89z"/>
				</g>
				<g id="&lt;Group&gt;" style="opacity: .3">
					<path id="&lt;Path&gt;" class="s2" d="m278.38 416.24c-9.5 10.14-18.54 21.67-26.08 34.53-26.1 44.52-82.15 43.15-106.43 40.19-5.28-2.8-8.58-4.68-8.58-4.68l-1.74-8.12 31.85-44.61c0 0-11.08 50.41 42.31 14.64 53.39-35.77 40.03-92.59 40.03-92.59l12.66 17.41 10.45 12.06z"/>
				</g>
				<g id="&lt;Group&gt;">
					<path id="&lt;Path&gt;" class="s2" d="m117.9 561.64c-18.37 0-39.38-5.67-59.24-19.86-32.66-23.33-28.66-53.35-27.17-60.43-24.97-81.99 22.19-120.49 67.81-157.72l1.01-0.83c43.03-35.12 47.92-58.26 47.97-58.49 0.5-2.63 3.05-4.37 5.66-3.9 2.63 0.48 4.39 2.97 3.93 5.6-0.18 1.06-5.02 26.49-51.39 64.35l-1.01 0.82c-45.35 37.01-88.18 71.97-64.27 148.54 0.28 0.91 0.29 1.88 0.03 2.79-0.32 1.17-7.65 29.38 23.1 51.34 30.35 21.68 63.23 21.55 82.35 11.81 5.7-2.9 8.79-9.34 8.26-17.21-0.64-9.67-7.14-21.49-20.2-26.08-1.56-0.55-2.74-1.85-3.12-3.46l-2.09-8.7c-0.4-1.64 0.09-3.37 1.28-4.57 1.18-1.2 2.91-1.7 4.55-1.32 0.81 0.19 81.12 17.9 112.74-36.02 30.78-52.49 85-82.73 97.51-89.21l4.39-57.87-29.32-32.79c-1.8-2.01-1.63-5.09 0.38-6.88 2.01-1.79 5.09-1.63 6.88 0.38l30.71 34.34c0.89 0.99 1.33 2.29 1.23 3.62l-4.76 62.69c-0.13 1.73-1.18 3.27-2.74 4.02-0.63 0.31-63.2 30.92-95.87 86.63-14.67 25.02-40.76 39.95-75.46 43.19-15.16 1.41-28.75 0.33-37.55-0.83 12.15 6.39 20.25 18.5 21.17 32.21 0.79 11.89-4.28 21.81-13.56 26.55-8.93 4.54-20.43 7.29-33.21 7.29z"/>
				</g>
				<g id="&lt;Group&gt;">
					<g id="&lt;Group&gt;">
						<path id="&lt;Path&gt;" class="s4" d="m597.01 504.39c-32.03 31.34-63.45 1.25-63.45 1.25 0 0-27.81-37.81-9.16-97l49.65-50.51c0 0-0.17 9.98 0.08 24.28 0.39 21.84 1.76 53.79 6.17 75.67 4.46 4 8.44 7.95 11.77 11.84v0.01c10.53 12.34 14.29 24.03 4.94 34.46z"/>
					</g>
					<g id="&lt;Group&gt;" style="opacity: .3">
						<path id="&lt;Path&gt;" class="s2" d="m597.01 504.39c-32.03 31.34-63.45 1.25-63.45 1.25 0 0-27.81-37.81-9.16-97l49.65-50.51c0 0-0.17 9.98 0.08 24.28l-3.23 2.55c0 0-27.51 34.82-30.99 63.37-3.48 28.55 3.32 45.26 16.8 51.88 13.49 6.62 43.98-7.66 35.36-30.28 10.53 12.34 14.29 24.03 4.94 34.46z"/>
					</g>
					<g id="&lt;Group&gt;">
						<path id="&lt;Path&gt;" class="s2" d="m565.78 523.51c-20.25 0-35.36-14.12-35.59-14.34q-0.3-0.29-0.55-0.63c-1.2-1.63-29.07-40.52-9.89-101.37 0.81-2.57 3.54-3.99 6.11-3.18 2.57 0.81 3.99 3.54 3.19 6.11-16.71 53.03 5.64 88.5 8.21 92.33 3.36 3.02 29.39 24.71 56.23-1.41 5.67-6.42 8.8-16.7-16.44-39.31-0.78-0.7-1.32-1.64-1.53-2.67-7.33-36.31-6.39-98.36-6.35-100.98 0.04-2.69 2.28-4.85 4.95-4.8 2.69 0.05 4.84 2.27 4.8 4.96-0.01 0.62-0.93 61.78 5.85 97.32 10.57 9.52 33.97 31.9 15.88 52.1q-0.11 0.12-0.23 0.23c-12.02 11.77-24.04 15.64-34.64 15.64z"/>
					</g>
					<g id="&lt;Group&gt;">
						<path id="&lt;Path&gt;" class="s4" d="m548.96 369.01q0.01 6.06-0.5 11.67c-2.38 25.81-12.91 45.17-27.35 61.38-2.13 31.6 6.75 57.34 21.94 79.74 0 0 4.87 7.66 3.83 17.41-1.05 9.75-12.54 27.16-51.54 21.24-8.48-1.3-15.81-5.32-22.06-10.85-22.48-19.84-31.21-58.9-31.21-58.9-13.15 13.34-26.14 20.72-30.11 22.81-0.8 0.42-1.23 0.63-1.23 0.63 8.47 16.95 8.71 46.66-37.25 43.87h-64.42c-15.14-4.46-27.79-15.38-36.21-37.26q-0.72-1.86-1.39-3.83c-14.71-14.79-22.37-33.05-24.64-51.99-3.55-29.59 6.04-60.89 22.53-83.36 3.62-4.97 7.61-9.51 11.85-13.51 1.19-28.92 276.09-37.99 267.76 0.95z"/>
					</g>
					<g id="&lt;Group&gt;">
						<path id="&lt;Compound Path&gt;" fill-rule="evenodd" class="s2" d="m510.01 566.51c-4.59 0-9.7-0.38-15.4-1.24-33.43-5.08-49.64-47.27-55.11-65.39-9.21 8.28-17.67 13.66-22.5 16.43 3.69 9.73 4.83 22.19-1.7 32.08-7.17 10.84-21.29 15.73-41.97 14.5h-64.27q-0.7-0.01-1.38-0.2c-18.93-5.57-32.18-19.69-40.47-43.13-17.47-18.01-26.45-41.86-25.98-69.05 0.54-31.74 14.09-64.08 35.46-84.87 1.72-6.1 9.08-9.44 11.69-10.62 24.07-10.92 84.58-16.34 133.87-16.85 23.97-0.25 103.94 0.28 125.59 17.71 5.97 4.81 6.62 9.95 6 13.59-0.01 28.9-8.91 52.65-27.97 74.56-1.5 27.21 5.45 51.78 21.21 75.03q0.04 0.06 0.08 0.12c0.23 0.37 5.78 9.23 4.56 20.55-0.34 3.18-2.08 11.32-10.82 18.06-5.56 4.28-15.12 8.72-30.89 8.72zm-67.94-80.69q0.67 0 1.34 0.19c1.72 0.49 3.03 1.88 3.42 3.62 0.13 0.6 14.02 60.65 49.24 66 21.86 3.32 33.21-1.19 38.88-5.56 5.92-4.57 6.92-9.87 7.08-11.38 0.8-7.49-2.74-13.66-3.08-14.25-17.3-25.57-24.73-52.62-22.7-82.7 0.07-1.08 0.5-2.11 1.22-2.92 18.24-20.48 26.7-42.66 26.62-69.8q0-0.52 0.11-1.03c0.69-3.21-5.15-8.49-23.84-12.78-30.78-7.05-86.46-9.27-141.88-5.64-26.22 1.71-48.97 4.55-65.78 8.21-24.72 5.38-26.62 10.47-26.63 10.52-0.05 1.28-0.6 2.44-1.53 3.32-19.89 18.7-33.06 49.73-33.56 79.05-0.3 17.37 3.61 42.37 23.93 62.82q0.79 0.79 1.16 1.85c7.06 20.58 18.09 32.95 33.71 37.8h63.7q0.14 0 0.29 0c16.79 1.03 28.34-2.48 33.39-10.13 5.28-7.98 2.87-19.37-0.79-26.69-0.58-1.17-0.67-2.53-0.25-3.77 0.43-1.23 1.33-2.25 2.51-2.81 0.15-0.07 15.04-7.32 29.97-22.47 0.93-0.94 2.18-1.45 3.47-1.45zm-160.86-117.75h0.01z"/>
					</g>
					<g id="&lt;Group&gt;">
						<path id="&lt;Path&gt;" class="s1" d="m482.63 392.7c-33.67 32.59-102.05 36.74-158.32 17.05-34.37-12.01-64.22-32.92-78.86-61.67l55.14-17.86 51.7-16.74 10.15 1.74 91.7 15.77 1.77 3.83z"/>
					</g>
					<g id="&lt;Group&gt;" style="opacity: .3">
						<path id="&lt;Path&gt;" class="s2" d="m358.7 355.36c-30.29-6.89-48.16-17.21-58.11-25.14l51.7-16.74 10.15 1.74c16.45 23.19 26.18 46.95-3.74 40.14z"/>
					</g>
					<g id="&lt;Group&gt;" style="opacity: .3">
						<path id="&lt;Path&gt;" class="s2" d="m482.63 392.7c-33.67 32.59-102.05 36.74-158.32 17.05 84.88 23.61 118.01-30.04 68.29-41.82 0 0 24.86-55.74 61.54-34.16q0.9 0.53 1.77 1.05z"/>
					</g>
					<g id="&lt;Group&gt;">
						<path id="&lt;Path&gt;" class="s2" d="m245.46 348.07c14.02 17.54 30.58 31.04 49.56 42.37 18.57 11.45 39.62 18.74 61.07 22.7 32 5.77 66.17 5.42 96.47-6.96 9.87-4.14 19.09-9.74 26.68-16.98l-1.03 5.55-28.5-61.72 3.6 2.76-101.84-17.5c-6.28-1.25-4.76-10.52 1.65-9.61 0 0 101.85 17.5 101.85 17.5 1.63 0.29 2.94 1.37 3.6 2.77l28.49 61.71c0.9 1.93 0.42 4.16-1.04 5.55-8.65 8.26-18.93 14.44-29.69 18.96-43.07 17.22-92.11 13.47-135.22-1.37-31.96-10.92-65.75-31.42-75.65-65.73z"/>
					</g>
					<g id="&lt;Group&gt;">
						<g id="&lt;Group&gt;">
							<path id="&lt;Path&gt;" class="s1" d="m565.84 367.09c-8.96 8.57-19.49 15.31-30.89 20.13l-0.01 0.01q-3.48 1.46-7.06 2.7c-8.48 2.93-16.52 4.83-23.96 5.82-34.71 4.71-56.38-10.16-49.78-32.94q6.45-1.55 12.97-3.56c21.06-6.46 42.48-16.24 61.69-27.31 17.78-10.24 33.66-21.59 45.54-32.43 18.33 28.96 10.1 49.85-8.5 67.58z"/>
						</g>
						<g id="&lt;Group&gt;">
							<path id="&lt;Compound Path&gt;" fill-rule="evenodd" class="s2" d="m491.45 401.51c-14.76 0-27.05-3.81-34.94-11.31-7.77-7.4-10.28-17.6-7.05-28.74 0.48-1.68 1.83-2.98 3.54-3.39 46.66-11.26 93.9-40.11 118.05-62.15 1.06-0.97 2.5-1.42 3.93-1.23 1.43 0.19 2.7 1 3.47 2.22 17.24 27.22 14.22 51.33-9.24 73.71-10.99 10.48-24.73 18.75-39.74 23.92-13.56 4.66-26.53 6.97-38.02 6.97zm-33.25-34.68c-1.16 6.45 0.56 12.05 5.03 16.31 8.51 8.09 30.13 13.51 63.06 2.18 13.7-4.71 26.21-12.23 36.19-21.75 18.67-17.81 22.06-35.42 10.65-56.5-25.55 21.77-70.3 48.32-114.93 59.76z"/>
						</g>
						<g id="&lt;Group&gt;">
							<path id="&lt;Path&gt;" class="s2" d="m475.49 357.96c-0.52 4.25 0.53 8.89 2.98 12.48 1.94 2.97 5.2 5.19 8.6 6.46 1.2 0.45 2.47 0.72 3.75 1.09-1.3 0.03-2.65 0.17-3.99 0.1-10.74-0.16-19.28-9.5-21.08-19.77 0 0 9.74-0.36 9.74-0.36z"/>
						</g>
						<g id="&lt;Group&gt;" style="opacity: .3">
							<path id="&lt;Path&gt;" class="s2" d="m565.84 367.09c-8.96 8.57-19.49 15.31-30.89 20.13 44.68-49.85 5.42-54.85-6.15-55.28 17.78-10.24 33.66-21.59 45.54-32.43 18.33 28.96 10.1 49.85-8.5 67.58z"/>
						</g>
						<g id="&lt;Group&gt;" style="opacity: .3">
							<path id="&lt;Path&gt;" class="s2" d="m503.92 395.75c-34.71 4.71-56.38-10.16-49.78-32.94q6.45-1.55 12.97-3.56c-0.69 2-11.14 34.14 31.02 36.15q3.05 0.15 5.79 0.35z"/>
						</g>
					</g>
					<g id="&lt;Group&gt;">
						<path id="&lt;Path&gt;" class="s2" d="m407.3 517.6c-6.87-6.94-16.16-10.3-25.9-10.43-4.86-0.09-6.52-6.64-2.39-9.07 6.53-3.91 12.1-9.22 15.51-15.77 9.97-20.89 0.97-50.08-22.96-56.63 4.23-0.04 8.55 0.9 12.59 2.63 12.56 5.49 21.1 17.78 23.68 31.29 3.67 18.69-7.9 37.74-23.87 46.88 0 0-2.38-9.07-2.38-9.07 5.86 0.11 11.87 1.12 17.51 3.35 5.66 2.21 10.84 5.68 15.09 9.91 4.43 4.63-2.2 11.34-6.88 6.91z"/>
					</g>
					<g id="&lt;Group&gt;">
						<path id="&lt;Path&gt;" class="s2" d="m382.04 507.14c-8.34-0.04-16.83 1.67-24.41 5.28-2.61 1.24-5.03 2.85-7.37 4.68 1.74-2.38 3.71-4.7 6-6.7 7.11-6.22 15.83-10.59 24.98-13.02 7.45-1.31 8.37 9.84 0.8 9.76z"/>
					</g>
					<g id="&lt;Group&gt;">
						<path id="&lt;Path&gt;" class="s2" d="m374.37 555.63c4.1-4.56 5.59-11.63 2.61-17.28-0.98-2.17-2.59-3.97-4.2-5.76 2.18 1.2 4.41 2.47 6.16 4.32 6.29 5.93 7.02 16.07 3.73 23.83z"/>
					</g>
					<g id="&lt;Group&gt;">
						<path id="&lt;Path&gt;" class="s2" d="m437.31 491.74c-1.63-15.4-2.89-30.85-3.13-46.31 3.45 14.96 7.89 29.66 12.65 44.22 1.93 6.91-8.38 9.18-9.52 2.09z"/>
					</g>
					<g id="&lt;Group&gt;">
						<path id="&lt;Path&gt;" class="s2" d="m516.3 441.8l2.5-23.53 7.2 22.54c0.84 2.62-0.61 5.43-3.23 6.26-3.33 1.15-6.9-1.79-6.47-5.27z"/>
					</g>
					<g id="&lt;Group&gt;">
						<path id="&lt;Path&gt;" class="s2" d="m522.6 555.51c-1.37 0.23-2.92 1.5-3.39 2.82-0.03 0.08-0.08 0.24-0.08 0.3 0.91-1.47 1.24-3.47 1.59-5.24 1.17-6.56-0.69-13.55-5.53-18.36 4.48 2.16 8.2 5.99 10.39 10.58 2.27 4.85 3.5 10.49 2.79 15.88-0.11 0.35-0.19 0.67-0.39 1.03-2.06 3.98-8.14 3.21-9.08-1.19-0.58-2.63 1.07-5.24 3.7-5.82z"/>
					</g>
					<g id="&lt;Group&gt;">
						<path id="&lt;Path&gt;" class="s2" d="m579.76 513.47c1.33-5.11-0.36-10.95-3.25-15.45-1.08-1.74-2.45-3.26-3.87-4.77 4.04 1.72 7.66 4.14 10.61 7.51 3.14 3.63 5.64 8.27 6.25 13.15 0 0-9.74-0.44-9.74-0.44z"/>
					</g>
					<g id="&lt;Group&gt;" style="opacity: .3">
						<path id="&lt;Path&gt;" class="s2" d="m373.48 558.01h-64.42c-15.14-4.46-27.79-15.38-36.21-37.26 1.27-1.35 2.09-2.1 2.09-2.1 32.06 37.97 66.43 26.91 100.78 16.38 23.13-0.35 32.92-27.51 14.32-31.56-18.61-4.05-32.93 8.58-34.45 8.89 25.56-22.65 37.57-48.63 33.75-78.5 16.98 19.65 20.72 40.89-0.54 65.12l15.73 10.1c2.75 1.26 5.21 2.76 7.43 4.43-0.8 0.42-1.23 0.63-1.23 0.63 8.47 16.95 8.71 46.66-37.25 43.87z"/>
					</g>
					<g id="&lt;Group&gt;" style="opacity: .3">
						<path id="&lt;Path&gt;" class="s2" d="m543.05 521.8c0 0 4.87 7.66 3.83 17.41-1.05 9.75-12.54 27.16-51.54 21.24-8.48-1.3-15.81-5.32-22.06-10.85 21.27 3.02 49.47-13.43 46.69-30.95-3.11-19.62-32.18-46.29-18.71-80.25 13.47-33.97 2.66-42.65 2.66-42.65l24.88-8.53 19.66-6.54c-2.38 25.81-12.91 45.17-27.35 61.38-2.13 31.6 6.75 57.34 21.94 79.74z"/>
					</g>
					<g id="&lt;Group&gt;" style="opacity: .3">
						<path id="&lt;Path&gt;" class="s2" d="m486.29 396.63c-0.35 1.56-35.28 51.24-88.67 44.68 0 0-15.09-11.9-26.06-17.7 41.74 3.37 77.71-4.81 106.68-26.98"/>
					</g>
					<g id="&lt;Group&gt;" style="opacity: .3">
						<path id="&lt;Path&gt;" class="s2" d="m435.98 458.34c0 0-1.22 23.76-34.65 22.02 0 0-15.55 18.29-14.04 18.46 1.51 0.16 24.29 10.88 24.29 10.88l28.17-19.94v-4.41"/>
					</g>
					<g id="&lt;Group&gt;" style="opacity: .3">
						<path id="&lt;Path&gt;" class="s2" d="m317.95 407.41c0 0-64.6 3.2-69.24 47.3q-0.59 5.54-1.89 10.22c-3.55-29.59 6.04-60.89 22.53-83.36l22.06 15.06z"/>
					</g>
				</g>
				<g id="&lt;Group&gt;">
					<g id="&lt;Group&gt;">
						<path id="&lt;Path&gt;" class="s4" d="m522.61 333.54c-39.84 24.05-76.95 34.39-108.7 34.39q-1.38-0.01-2.73-0.03-0.85-0.02-1.67-0.04-1.05-0.03-2.09-0.09-2.18-0.09-4.31-0.25-1.31-0.11-2.61-0.24-1.01-0.08-1.97-0.19-0.83-0.1-1.67-0.21-0.82-0.1-1.62-0.21-1.22-0.16-2.45-0.36-2.15-0.34-4.24-0.74-0.8-0.15-1.58-0.32-0.19-0.04-0.36-0.07-0.9-0.18-1.77-0.39-0.23-0.04-0.47-0.11-1.71-0.38-3.37-0.82-0.95-0.25-1.9-0.52-0.94-0.25-1.86-0.54-1.88-0.55-3.69-1.16-1.13-0.38-2.22-0.78-5.2-1.87-10.01-4.17-0.84-0.42-1.65-0.83-4.34-2.17-8.34-4.7-0.56-0.36-1.13-0.73-0.75-0.48-1.5-0.99-2.14-1.44-4.19-3.01-2.34-1.77-4.54-3.67-0.77-0.66-1.52-1.35-3.77-3.38-7.09-7.13-0.5-0.58-1-1.16-0.57-0.67-1.12-1.34-5.05-6.12-8.94-13.06-0.37-0.65-0.72-1.32-0.17-0.32-0.34-0.63-0.33-0.59-0.63-1.2-0.39-0.76-0.76-1.53-0.31-0.65-0.63-1.32-0.37-0.79-0.72-1.59c-3.78-8.51-6.3-17.73-7.44-27.49-7.65-63.75-0.53-114.02 24.23-148.18 14.1-19.47 33.93-33.72 60.03-42.24 0 0 10.09-3 26.1-5.16q4.29-0.59 9.1-1.06c23.33-2.25 55.42-1.99 87.19 9.17q7.08 2.48 14.1 5.71c-5.93-33.97-15.36-63.69-33.66-82.63 26.14-2.47 50.07 26.61 70.57 104.57 19.84 15.69 36.84 38.49 44.45 64.31q0.47 1.6 0.89 3.22 0.2 0.76 0.39 1.52 0.51 2.09 0.94 4.22 0.17 0.83 0.32 1.67 0.17 0.9 0.32 1.82 0.13 0.68 0.23 1.36 0.18 1.13 0.32 2.27 0.12 0.89 0.22 1.78 0.33 2.88 0.49 5.79 0.04 0.87 0.07 1.74c1.47 40.57-22.31 84.99-92.75 120.02z"/>
					</g>
					<g id="&lt;Group&gt;" style="opacity: .3">
						<path id="&lt;Path&gt;" class="s2" d="m522.61 333.54c-39.84 24.05-76.95 34.39-108.7 34.39q-1.38-0.01-2.73-0.03-0.85-0.02-1.67-0.04-1.05-0.03-2.09-0.09-2.18-0.09-4.31-0.25-1.31-0.11-2.61-0.24-1.01-0.08-1.97-0.19-0.83-0.1-1.67-0.21-0.82-0.1-1.62-0.21-1.22-0.16-2.45-0.36-2.15-0.34-4.24-0.74-0.8-0.15-1.58-0.32-0.19-0.04-0.36-0.07-0.9-0.18-1.77-0.39-0.23-0.04-0.47-0.11-1.71-0.38-3.37-0.82-0.95-0.25-1.9-0.52-0.94-0.25-1.86-0.54-1.88-0.55-3.69-1.16-1.13-0.38-2.22-0.78-5.2-1.87-10.01-4.17-0.84-0.42-1.65-0.83-4.34-2.17-8.34-4.7-0.56-0.36-1.13-0.73-0.75-0.48-1.5-0.99-2.14-1.44-4.19-3.01-2.34-1.77-4.54-3.67-0.77-0.66-1.52-1.35-3.77-3.38-7.09-7.13-0.5-0.58-1-1.16-0.57-0.67-1.12-1.34-5.05-6.12-8.94-13.06-0.37-0.65-0.72-1.32-0.17-0.32-0.34-0.63-0.33-0.59-0.63-1.2-0.39-0.76-0.76-1.53-0.31-0.65-0.63-1.32-0.37-0.79-0.72-1.59c-3.78-8.51-6.3-17.73-7.44-27.49-7.65-63.75-0.53-114.02 24.23-148.18 14.1-19.47 33.93-33.72 60.03-42.24 0 0 10.09-3 26.1-5.16q0.66 1.59 1.28 3.22c5.38 13.98 9.35 30.04 11.45 48.13 2.4 25.6-4.59 43.54-15.12 52.9-11.62 66.98-44.88 101.03-90.69 115.94v0.01c34.85 40.42 107.29 51.42 192.09 0.21 70.63-35.13 94.35-79.68 92.74-120.34q0.47 1.6 0.89 3.22 0.2 0.76 0.39 1.52 0.51 2.09 0.94 4.22 0.17 0.83 0.32 1.67 0.17 0.9 0.32 1.82 0.13 0.68 0.23 1.36 0.18 1.13 0.32 2.27 0.12 0.89 0.22 1.78 0.33 2.88 0.49 5.79 0.04 0.88 0.07 1.74c1.47 40.57-22.31 84.99-92.75 120.02z"/>
					</g>
					<g id="&lt;Group&gt;" style="opacity: .7">
						<path id="&lt;Path&gt;" class="s3" d="m529.61 102.46c0.73 5.17-4.54 9.13-9.3 7.01-31.89-14.24-65.15-16.71-89.3-15.91-21.28 0.71-35.51 3.97-35.51 3.97-26.37 6.81-46.95 19.61-62.21 37.93 14.1-19.47 33.93-33.72 60.03-42.24 0 0 14-4.15 35.2-6.22 23.33-2.25 55.42-1.99 87.19 9.17q6.98 2.71 13.88 6.17 0.01 0.06 0.02 0.12z"/>
					</g>
					<g id="&lt;Group&gt;" style="opacity: .7">
						<path id="&lt;Path&gt;" class="s3" d="m612.36 240.97c5.61-38.83-13.68-75.89-40.1-100.25-5.11-4.7-8.73-10.81-10.63-17.49-16.81-59.1-35.81-86.94-56.34-92.62q-4.15-6.19-9.14-11.36c26.14-2.47 50.07 26.61 70.57 104.57 32.66 25.86 57.65 70.94 45.64 117.15z"/>
					</g>
					<g id="&lt;Group&gt;">
						<path id="&lt;Compound Path&gt;" fill-rule="evenodd" class="s2" d="m413.71 372.83c-20.01 0-38.67-4-55.24-12.11-30.53-14.96-50.31-42.85-54.25-76.52-6.22-51.82-2.51-94.35 11.02-126.4 14.37-34.03 40.13-57.32 76.57-69.22q0.06-0.02 0.13-0.04c0.59-0.17 14.69-4.3 36.11-6.39 24.67-2.38 60.45-2.09 95.3 11.66-6.76-33.83-16.6-56.58-30.7-71.18-1.31-1.34-1.72-3.32-1.07-5.07 0.65-1.76 2.25-2.99 4.11-3.17 30.83-2.92 55.49 31.98 75.34 106.63 26.91 21.86 53.49 60.95 48.74 106.44-3.18 30.39-22.2 74.19-94.81 110.35-38.42 23.17-76.82 35.02-111.25 35.02zm-18.95-274.96c-66.74 21.85-93.19 82.42-80.86 185.19 3.55 30.32 21.36 55.43 48.86 68.9 42.07 20.61 99.41 12.37 157.33-22.59q0.17-0.11 0.35-0.2c54.44-27.07 85.44-62.6 89.63-102.73 4.42-42.27-21.06-78.76-46.37-98.8-0.83-0.66-1.42-1.56-1.69-2.58-15.53-59.03-33.78-92.43-54.37-99.6 12.37 17.22 21.05 41.65 26.98 75.58 0.31 1.79-0.4 3.6-1.84 4.7-1.44 1.11-3.37 1.32-5.01 0.56-35.46-16.4-73.29-16.91-98.78-14.44-19.76 1.92-33.25 5.73-34.23 6.01z"/>
					</g>
					<g id="&lt;Group&gt;">
						<g id="&lt;Group&gt;">
							<path id="&lt;Path&gt;" class="s2" d="m491.86 193.51c-5.17 11.18-11.06 18.2-18.45 27.97-8.82-12.04 4.3-30.38 18.45-27.97z"/>
						</g>
						<g id="&lt;Group&gt;">
							<path id="&lt;Path&gt;" class="s2" d="m358.7 262.05c6.59-8.64 19.13-10.05 28.28-5.14 2.22 1.31 4.19 2.94 5.61 5.14-3.45 1.44-6.21 1.94-8.96 2.5-8.69 1.34-16.44 0.98-24.93-2.5z"/>
						</g>
						<g id="&lt;Group&gt;">
							<path id="&lt;Path&gt;" class="s5" d="m428.41 279.27c0 0 13.66 18.64 28.11 29.26 14.45 10.62 22.63 2.09 23.33-6.27 0.69-8.35-19.06-39.83-19.06-39.83"/>
						</g>
						<g id="&lt;Group&gt;">
							<path id="&lt;Path&gt;" class="s2" d="m436.35 240.92c-6.61 3.08-11.81 7.01-15.85 11.64-1.23 1.4-0.61 3.63 1.16 4.21 3.18 1.06 8.3 2.01 13.95 0.1 0.56-0.19 1.03-0.58 1.35-1.07 1.07-1.61 3.2-5.7 3.15-12.51-0.01-1.91-2.03-3.18-3.76-2.37z"/>
						</g>
						<g id="&lt;Group&gt;">
							<path id="&lt;Path&gt;" class="s2" d="m409.19 274.58c5.55 2.7 11.92 4.43 17.06 1.21 4.51-2.93 8.18-7.52 9.88-12.9 0.7-2.29 3.09-3.27 5.27-2.73 9.34 1.67 18.17 0.96 24.3-7.11 2.03-2.59 3.64-5.72 4.92-9.28 4.35 18.86-14.72 32.27-31.79 24.34 0 0 5.27-2.73 5.27-2.73-2.36 7.42-6.58 15.46-14.84 17.88-7.93 2.67-16.48-1.86-20.07-8.68z"/>
						</g>
						<g id="&lt;Group&gt;">
							<path id="&lt;Path&gt;" class="s2" d="m467.14 274.58c0 0-20.7 9.64-14.32 31.06l-22.36-25.72 10.91-14.74h19.42"/>
						</g>
						<g id="&lt;Group&gt;">
							<path id="&lt;Path&gt;" class="s2" d="m468.82 317.67c-3.9 0-8.83-1.4-14.77-5.77-14.8-10.88-28.43-29.37-29.01-30.16-1.36-1.86-0.96-4.47 0.9-5.84 1.86-1.36 4.48-0.96 5.84 0.9 0.14 0.19 13.46 18.26 27.22 28.37 5.03 3.69 9.47 4.97 12.5 3.59 2.77-1.26 3.99-4.47 4.19-6.84 0.35-4.3-9.3-22.69-18.44-37.26-1.23-1.96-0.64-4.54 1.31-5.76 1.96-1.23 4.54-0.64 5.76 1.31 4.81 7.66 20.45 33.36 19.69 42.4-0.51 6.18-3.98 11.45-9.05 13.76-1.62 0.74-3.67 1.3-6.14 1.3z"/>
						</g>
						<g id="&lt;Group&gt;">
							<path id="&lt;Path&gt;" class="s2" d="m452.82 309.82c-1.8 0-3.46-1.18-4-2.99-5.87-19.67 8.26-32.17 16.55-36.03 2.09-0.98 4.58-0.07 5.56 2.02 0.97 2.09 0.07 4.57-2.01 5.55-0.74 0.35-17.34 8.48-12.09 26.07 0.66 2.21-0.6 4.54-2.81 5.2q-0.6 0.18-1.2 0.18z"/>
						</g>
					</g>
					<g id="&lt;Group&gt;">
						<path id="&lt;Path&gt;" class="s6" d="m529.81 101.88c-36.15-16.73-74.5-17.47-101.29-14.88 14.08-24.54 40.71-63.69 67.63-67.75 18.3 18.94 27.73 48.66 33.66 82.63z"/>
					</g>
					<g id="&lt;Group&gt;" style="opacity: .7">
						<path id="&lt;Path&gt;" class="s3" d="m517.82 55.49c-4.76-10.32-10.57-19.41-17.73-26.81-23.42 3.53-46.64 33.64-61.53 57.57q-5.25 0.28-10.04 0.75c14.08-24.54 40.71-63.69 67.63-67.75 9.28 9.59 16.27 21.95 21.67 36.24z"/>
					</g>
					<g id="&lt;Group&gt;">
						<path id="&lt;Compound Path&gt;" fill-rule="evenodd" class="s2" d="m529.81 106.75q-1.05 0-2.04-0.45c-35.46-16.4-73.29-16.91-98.78-14.44-1.81 0.18-3.58-0.68-4.57-2.21-0.99-1.53-1.04-3.49-0.13-5.07 13.94-24.29 41.72-65.71 71.13-70.15 1.57-0.24 3.14 0.3 4.24 1.43 16.72 17.31 27.83 44.37 34.96 85.18 0.31 1.79-0.4 3.6-1.84 4.7-0.86 0.67-1.91 1.01-2.97 1.01zm-78.38-25.73c21.49 0 46.94 2.94 71.92 12.79-6.48-32.39-15.77-54.62-28.92-69.26-22.21 5.34-44.73 37.02-56.93 56.87 4.41-0.25 9.07-0.4 13.93-0.4z"/>
					</g>
					<g id="&lt;Group&gt;">
						<path id="&lt;Path&gt;" class="s2" d="m428.5 91.89c-2.69 0-4.87-2.18-4.87-4.87 0-2.69 2.2-4.89 4.89-4.89 2.69 0 4.87 2.18 4.87 4.87 0 1.35-0.55 2.58-1.43 3.46-0.89 0.88-2.11 1.43-3.46 1.43z"/>
					</g>
					<g id="&lt;Group&gt;">
						<g id="&lt;Group&gt;">
							<path id="&lt;Path&gt;" class="s2" d="m539.8 199.14q-0.23 0-0.47-0.03c-1.9-0.25-3.24-2.01-2.99-3.91 0.1-0.74 2.73-18.27 29.19-35.31 1.62-1.05 3.78-0.58 4.82 1.04 1.04 1.61 0.57 3.77-1.05 4.81-23.79 15.32-26.03 30.23-26.05 30.38-0.24 1.75-1.73 3.02-3.45 3.02z"/>
						</g>
						<g id="&lt;Group&gt;">
							<path id="&lt;Path&gt;" class="s2" d="m560.11 217.83c-1.46 0-2.81-0.92-3.3-2.37-0.62-1.82 0.36-3.8 2.18-4.41l30.99-10.45c1.82-0.61 3.8 0.37 4.41 2.19 0.62 1.82-0.36 3.79-2.18 4.41l-30.99 10.44q-0.56 0.19-1.11 0.19z"/>
						</g>
						<g id="&lt;Group&gt;">
							<path id="&lt;Path&gt;" class="s2" d="m579.08 256.65c-0.86 0-1.73-0.32-2.41-0.97-7.21-6.91-16.54-7.21-16.63-7.21-1.92-0.05-3.45-1.64-3.41-3.55 0.04-1.92 1.6-3.39 3.53-3.41 0.49 0 12.09 0.29 21.33 9.15 1.39 1.33 1.44 3.53 0.11 4.92-0.69 0.71-1.6 1.07-2.52 1.07z"/>
						</g>
						<g id="&lt;Group&gt;">
							<path id="&lt;Path&gt;" class="s2" d="m302.96 327.4c-0.89 0-1.78-0.34-2.46-1.02-1.36-1.36-1.37-3.56-0.01-4.92 19.75-19.8 45.03-13.16 46.1-12.87 1.85 0.51 2.94 2.43 2.44 4.28-0.51 1.85-2.42 2.95-4.28 2.44-0.92-0.25-22.51-5.8-39.33 11.06-0.68 0.69-1.57 1.03-2.46 1.03z"/>
						</g>
						<g id="&lt;Group&gt;">
							<path id="&lt;Path&gt;" class="s2" d="m329.96 365.35q-0.28 0-0.55-0.05c-1.9-0.3-3.2-2.08-2.9-3.98 3.23-20.37 22.7-32.76 23.53-33.28 1.63-1.03 3.78-0.53 4.8 1.1 1.02 1.63 0.53 3.78-1.1 4.8-0.25 0.16-17.63 11.31-20.35 28.47-0.27 1.71-1.75 2.94-3.43 2.94z"/>
						</g>
						<g id="&lt;Group&gt;">
							<path id="&lt;Path&gt;" class="s2" d="m363.72 381.48c-1.54 0-2.95-1.04-3.36-2.61-4.59-17.59 9.54-34.04 10.14-34.73 1.27-1.45 3.47-1.6 4.92-0.34 1.45 1.27 1.6 3.46 0.33 4.91-0.17 0.21-12.3 14.43-8.65 28.41 0.48 1.86-0.63 3.76-2.5 4.24q-0.44 0.12-0.88 0.12z"/>
						</g>
					</g>
					<g id="&lt;Group&gt;" style="opacity: .3">
						<path id="&lt;Path&gt;" class="s2" d="m502.92 31.78c15.31 36.4-3.92 52.19-46.32 54.16l73.21 15.94-14.87-53.48"/>
					</g>
				</g>
				<g id="&lt;Group&gt;">
					<path id="&lt;Path&gt;" class="s1" d="m406.56 164.47c-12.82 108.97-76.96 139.78-160.69 140.75-71.39 5.34-129.21-41.77-135.43-103.67h-0.01c-2.6-25.76 3.74-54.09 21.75-82.26 23.98-48.14 54-79.36 93.54-90.94 17.09-5 35.95-6.32 56.88-3.77 72.74-3.52 101.95 62.44 123.96 139.89z"/>
				</g>
				<g id="&lt;Group&gt;" style="opacity: .3">
					<path id="&lt;Path&gt;" class="s2" d="m409.19 164.47c-12.82 108.97-76.95 139.78-160.69 140.75-65.76 4.92-120-34.66-133.01-89.33 19.08 44.53 66.3 74.64 122.12 70.32 63.34-0.76 115.06-19.86 140.39-80.62 1.4-3.35-0.09-7.25-3.38-8.78-19.5-9.15-25.62-43.03-25.85-44.4 7.85 19.4 31.86 29.79 36.6 31.67 3.2-11.63 5.65-24.47 7.26-38.62-9.75-35.56-20.95-68.68-37.01-93.79 25.24 25.81 40.64 67.33 53.57 112.8z"/>
				</g>
				<g id="&lt;Group&gt;" style="opacity: .7">
					<path id="&lt;Path&gt;" class="s3" d="m375.65 83.05c-19.85-31.94-47.06-52.15-88.18-50.15-20.93-2.55-39.79-1.23-56.88 3.77-39.54 11.57-69.55 42.8-93.54 90.93-18.01 28.18-24.34 56.51-21.75 82.26h0.01c1.45 14.36 5.66 27.91 12.19 40.2-9.3-14.38-15.28-30.84-17.06-48.51h-0.02c-2.59-25.76 3.75-54.09 21.76-82.26 23.98-48.14 54-79.36 93.54-90.94 17.09-5 35.94-6.32 56.88-3.77 44.58-2.16 72.81 21.78 93.05 58.47z"/>
				</g>
				<g id="&lt;Group&gt;">
					<path id="&lt;Path&gt;" class="s7" d="m225.72 28.35q-4.91 1.44-9.61 3.28c-34.85 13.58-61.93 43.51-83.93 87.66-18.01 28.17-24.35 56.5-21.76 82.26-20.55-8.57-35.44-30.09-34.69-59.73v-0.01c0.58-22.66 10.32-50.04 33.66-80.01 7.59-9.75 16.12-18.78 25.69-26.62 32.46-26.62 62.88-31.27 90.64-6.83z"/>
				</g>
				<g id="&lt;Group&gt;" style="opacity: .7">
					<path id="&lt;Path&gt;" class="s3" d="m225.72 28.35q-2.46 0.72-4.86 1.55c-25.41-16.68-52.91-10.5-82.07 13.4-9.56 7.84-18.09 16.87-25.68 26.61-33.77 43.38-39.05 81.36-29.34 107.39-14.25-25.88-11.86-67.38 25.62-115.5 7.59-9.75 16.12-18.78 25.69-26.62 32.46-26.62 62.88-31.27 90.64-6.83z"/>
				</g>
				<g id="&lt;Group&gt;">
					<path id="&lt;Compound Path&gt;" fill-rule="evenodd" class="s2" d="m234.89 310.51c-47.86 0-90.72-22.86-113.69-61.33-23.85-39.94-21.4-88.15 6.73-132.3 18.16-36.38 38.99-61.91 63.67-78.05 26.13-17.1 55.96-23.36 91.18-19.14 35.03-1.57 62.76 12.02 84.74 41.56 21.07 28.32 33.93 67.4 43.72 101.89q0.27 0.94 0.16 1.9c-11.5 97.74-64.03 143.84-165.32 145.06q-5.64 0.41-11.19 0.41zm27.56-282.32c-54.07 0-94.41 30.06-125.91 93.27q-0.11 0.23-0.25 0.45c-26.2 40.99-28.65 85.55-6.72 122.27 22.87 38.29 67.3 59.81 115.94 56.18q0.15-0.01 0.3-0.01c96.52-1.12 144.6-42.92 155.79-135.48-23.86-83.63-53.27-138.61-118.77-135.42q-0.41 0.02-0.82-0.03-10.07-1.23-19.56-1.23z"/>
				</g>
				<g id="&lt;Group&gt;">
					<path id="&lt;Path&gt;" class="s2" d="m190.44 197.81c19.13-25.37 60.22-22.01 83.34-4.01-7.41-1.5-14.47-3.06-21.54-4.13-21.11-3.34-42.66-2.53-61.8 8.14z"/>
				</g>
				<g id="&lt;Group&gt;">
					<path id="&lt;Path&gt;" class="s2" d="m241.2 196.65c-8.74-3.41-23.83-3.05-32.04 1.87-3.2 1.91-4.46 5.97-2.88 9.33 3.36 7.14 8.58 12.54 16.46 15.48 1.85 0.69 3.93 0.54 5.71-0.33 8.07-3.95 13.99-9.36 16.91-16.81 1.48-3.78-0.38-8.06-4.16-9.54z"/>
				</g>
				<g id="&lt;Group&gt;">
					<path id="&lt;Path&gt;" class="s5" d="m270.84 241.23c-3.49 29.12-18.81 37.15-32.18 30.52 0 0-0.44-20.68 22.18-30.25 0 0 4.71-0.16 10-0.27z"/>
				</g>
				<g id="&lt;Group&gt;">
					<path id="&lt;Path&gt;" class="s2" d="m196.94 234.89c12.66 6.65 17.96 8.32 30.29 0.15 0 0 1.31-0.76 1.31-0.76 1.57-0.9 3.56-0.39 4.52 1.13 5.54 5.92 15.95 6.25 23.36 3.15 4.02-1.74 7.7-3.91 11.3-6.41 3.59-2.56 6.84-5.71 10.18-9.97 1.21 8.21-3.99 16.79-10.92 21.21-11.93 6.93-29.9 8.46-40.13-2.38 0 0 5.83 0.37 5.83 0.37-11.74 12.8-28.28 7.81-35.74-6.49z"/>
				</g>
				<g id="&lt;Group&gt;">
					<path id="&lt;Path&gt;" class="s2" d="m260.85 241.5c-22.62 9.58-22.2 30.26-22.2 30.26-9.75-7.26-16.46-15.86-17.16-27.1l7.66-3.16c10.21 4.95 20.72 5.73 31.7 0z"/>
				</g>
				<g id="&lt;Group&gt;">
					<path id="&lt;Path&gt;" class="s2" d="m247.45 278.11c-3.53 0-7.13-0.87-10.65-2.61-9.88-4.86-17.67-15.72-21.38-29.78l8.08-2.13c3.05 11.55 9.4 20.67 17 24.42 3.19 1.58 8.02 2.89 13 0.2 6.83-3.69 11.51-13.45 13.19-27.48 0.27-2.12 0.47-4.41 0.59-7.02l8.35 0.41c-0.14 2.83-0.35 5.32-0.64 7.63-2.58 21.51-10.95 30.26-17.51 33.81-3.15 1.7-6.55 2.55-10.03 2.55z"/>
				</g>
				<g id="&lt;Group&gt;">
					<path id="&lt;Path&gt;" class="s2" d="m234.47 271.84c-0.02-0.96-0.19-23.63 24.75-34.18l3.26 7.69c-19.79 8.38-19.66 26.14-19.65 26.32z"/>
				</g>
				<g id="&lt;Group&gt;">
					<path id="&lt;Path&gt;" class="s2" d="m229.82 220.06l-2.58 7.69-5.58-5.89c-1.86-1.95-1.77-5.04 0.18-6.89 3.64-3.49 9.6 0.4 7.98 5.09z"/>
				</g>
				<g id="&lt;Group&gt;">
					<g id="&lt;Group&gt;">
						<path id="&lt;Path&gt;" class="s7" d="m347.36 121.73c-0.82-37.51-11.07-63.46-29.29-79.56-9.65-8.54-21.54-14.32-35.47-17.59 38.88-39.16 100.65-20.96 127.48 49.01 5.37 13.99 9.34 30.04 11.45 48.14 7.13 76.38-69.21 84.61-74.17 0z"/>
					</g>
					<g id="&lt;Group&gt;" style="opacity: .7">
						<path id="&lt;Path&gt;" class="s3" d="m421.9 135.68q-0.12-2.61-0.37-5.33c-2.11-18.09-6.08-34.15-11.45-48.14-25.18-65.67-81.14-85.74-120.07-55.57q-3.6-1.16-7.41-2.06c38.88-39.16 100.65-20.96 127.48 49.01 5.37 13.99 9.34 30.04 11.45 48.14q0.68 7.41 0.37 13.95z"/>
					</g>
					<g id="&lt;Group&gt;">
						<path id="&lt;Compound Path&gt;" fill-rule="evenodd" class="s2" d="m387.55 187.03c-4.85 0-9.76-1.14-14.46-3.43-17.66-8.61-28.81-31.06-30.6-61.59q0-0.09 0-0.18c-1.17-52.85-21.12-83.11-61.01-92.5-1.72-0.41-3.08-1.71-3.57-3.41-0.48-1.69-0.01-3.52 1.23-4.77 20.17-20.32 46.69-26.81 72.75-17.8 18.38 6.36 34.9 19.92 47.8 39.24 13.89 20.8 23.11 47.97 26.68 78.57 2.52 27.02-5.07 49.38-20.3 59.92-5.71 3.95-12.08 5.95-18.52 5.95zm-35.32-65.5c1.57 26.47 10.96 46.4 25.13 53.3 7.68 3.74 16.12 3.1 23.16-1.77 12.3-8.5 18.33-27.53 16.15-50.88-7.7-66.13-40.16-100-67.96-109.61-19.74-6.83-39.84-3.26-56.26 9.72 38.48 12.72 58.58 46.06 59.78 99.24z"/>
					</g>
					<g id="&lt;Group&gt;" style="opacity: .3">
						<path id="&lt;Path&gt;" class="s2" d="m347.36 121.73c-0.82-37.51-11.07-63.46-29.29-79.56l3.53-2.51c0 0 35.27 10.69 38.99 58.04 3.72 47.35 14.86 57.34 33.43 54.67 18.56-2.68 23.22-37.5 16.25-70.92-0.65-3.12-0.68-5.73-0.19-7.86 5.37 13.99 9.34 30.04 11.45 48.14 7.13 76.38-69.21 84.61-74.17 0z"/>
					</g>
				</g>
				<g id="&lt;Group&gt;">
					<path id="&lt;Path&gt;" class="s2" d="m110.43 206.42q-0.94 0-1.87-0.37c-17.26-7.18-30.09-22.43-35.19-41.83-8.14-30.88 3.29-68.32 32.17-105.41 8.18-10.5 17.07-19.72 26.44-27.4 35.94-29.47 68.57-31.73 96.98-6.7 2.02 1.78 2.21 4.86 0.43 6.88-1.78 2.02-4.86 2.21-6.88 0.43-24.62-21.69-52.21-19.42-84.35 6.93-8.81 7.22-17.2 15.92-24.93 25.85-26.97 34.64-37.78 69.06-30.44 96.94 4.33 16.43 15.09 29.3 29.52 35.3 2.48 1.04 3.66 3.89 2.63 6.38-0.79 1.87-2.6 3-4.51 3z"/>
				</g>
				<g id="&lt;Group&gt;" style="opacity: .3">
					<path id="&lt;Path&gt;" class="s2" d="m216.11 31.63c-34.85 13.58-61.93 43.51-83.93 87.66-18.01 28.17-24.35 56.5-21.76 82.26-20.55-8.57-35.44-30.09-34.69-59.73v-0.01h0.01c0 0 13.96 38.41 24.41 10.56 10.44-27.86 52.18-112.3 112.81-120.48q1.6-0.22 3.15-0.26z"/>
				</g>
				<g id="&lt;Group&gt;" style="opacity: .3">
					<path id="&lt;Path&gt;" class="s2" d="m185.8 220.03c0 0 3.48 23.2 32.37 24.31 28.89 1.12 46.14-4.65 46.14-4.65l12-13.08c-23.09 6.94-39.99 6.3-41.53-13.08l-11.37-1.62c0 15.84-16.1 29.73-37.61 9.05"/>
				</g>
				<g id="&lt;Group&gt;">
					<path id="&lt;Path&gt;" class="s2" d="m129.46 489.87l-1.86-11.14c-0.31-1.89 0.51-3.71 1.96-4.76 12.64-9.15 22.91-21.75 27.89-36.59 1.86-5.89 3.24-12.06 4.48-18.1 0.42-2.78 1.13-6.58 1.34-9.39 0.96-8.45 1.01-17.15 0.94-26.21 7.43 15.36 9.75 33.93 5.16 50.56-5.87 18.98-17.89 36.13-34.11 47.64 0 0 1.96-4.76 1.96-4.76l1.86 11.15c0.88 6.35-8.36 7.95-9.62 1.6z"/>
				</g>
				<g id="&lt;Group&gt;">
					<path id="&lt;Path&gt;" class="s2" d="m135.41 502.56c-5.44-2.69-11.75-3.9-17.86-3.63 5.94-3.59 12.78-5.6 19.75-5.94 0 0-1.89 9.57-1.89 9.57z"/>
				</g>
				<g id="&lt;Group&gt;">
					<path id="&lt;Path&gt;" class="s2" d="m108.81 552.64c-0.28 0.25 0.33 0.03 0.43-0.03 4.45-2.4 5.31-8.26 5.1-12.99l-0.27-2.68c2.06 3.2 3.77 6.6 4.28 10.49 0.64 4.45-0.45 9.85-3.89 13.16z"/>
				</g>
				<g id="&lt;Group&gt;">
					<path id="&lt;Path&gt;" class="s2" d="m134.55 551.44c4.11-4.13 5.15-10.94 3.71-16.59-0.22-0.94-0.57-1.83-0.86-2.78 1.34 1.46 2.67 3 3.65 4.76 3.42 5.74 4.22 13.29 1.86 19.64 0 0-8.36-5.03-8.36-5.03z"/>
				</g>
				<g id="&lt;Group&gt;" style="opacity: .3">
					<path id="&lt;Path&gt;" class="s2" d="m148.89 550c-18.45 9.4-53.27 12.19-87.39-12.18-8.93-6.37-14.89-13.28-18.82-20.02 50.97 35.67 128.5 28.98 79.05-20.6l-4.82-16.56c-1.72-5.97 0.9-12.25 6.23-15.44 37.86-22.71 42.91-72.3 42.91-72.3 6.49 33.67-5.38 60.61-30.5 82.66l1.46 14.05c-1.77-0.32-2.74-0.54-2.74-0.54l2.09 8.7c25.76 9.06 30.99 42.83 12.53 52.23z"/>
				</g>
				<g id="&lt;Group&gt;" style="opacity: .3">
					<path id="&lt;Path&gt;" class="s2" d="m259.48 538.39c-39.86 0.94-55.7-28.79-61.69-47.37 8.5-2.79 29.79-9.26 29.79-9.26l17.87-19.15 0.63 12.25c0 0-37.3 17.34-16.76 42.23 13.54 16.42 24.36 20.45 30.16 21.3z"/>
				</g>
				<g id="&lt;Group&gt;">
					<path id="&lt;Path&gt;" fill-rule="evenodd" class="s3" d="m225.26 204.22c-4.23 0-7.65-1.4-7.65-3.14 0-1.73 3.42-3.14 7.65-3.14 4.23 0 7.64 1.41 7.64 3.14 0 1.74-3.41 3.14-7.64 3.14z"/>
				</g>
				<g id="&lt;Group&gt;">
					<path id="&lt;Path&gt;" class="s2" d="m323.83 146.23c-22.07-4.58-38.59 7.9-47.38 27.32 0-0.01-5.55-4.82-5.55-4.82 11.05-6.24 24.74-8.99 37.03-5.12 4.01 1.21 7.78 2.94 11.26 5.09-15.95-3.96-30.49-2.07-44.42 6.78-1.82 1.1-4.19 0.53-5.29-1.29-0.68-1.11-0.72-2.41-0.26-3.53 1.98-5.44 5.01-10.36 8.72-14.73 11.28-13.67 30.19-19.29 45.89-9.7z"/>
				</g>
				<g id="&lt;Group&gt;">
					<path id="&lt;Path&gt;" class="s2" d="m147.45 151.75c13.66-10.22 31.76-6.61 43.32 5.08 3.8 3.73 7.02 8.03 9.32 12.9 0.96 1.8 0.24 4.08-1.63 4.95-1.01 0.48-2.16 0.43-3.1-0.02-6.41-3.14-13.12-5.37-20.17-5.8-7.28-0.51-14.52 1.02-21.53 3.3 12.97-10.09 30.01-10.82 44.71-4.08 0 0-4.73 4.93-4.73 4.93-9.8-17.23-26.15-27.37-46.19-21.26z"/>
				</g>
				<g id="&lt;Group&gt;">
					<g id="&lt;Group&gt;">
						<path id="&lt;Path&gt;" class="s3" d="m423.57-26.99c12.45-1.46 24.53-6.85 34.24-16.22 23.56-22.75 24.22-60.29 1.48-83.86-22.75-23.56-60.29-24.23-83.86-1.48-23.56 22.75-24.22 60.29-1.48 83.86 6.33 6.55 13.8 11.33 21.8 14.33l12.1 25.39z"/>
					</g>
					<g id="&lt;Group&gt;" style="opacity: .5">
						<g id="&lt;Group&gt;">
							<path id="&lt;Path&gt;" class="s3" d="m459.46-107.45c14.02 27.19 4.96 60.19-20.02 76.65q2.93-1.13 5.78-2.59c29.11-15.01 40.55-50.77 25.54-79.88-15.01-29.11-50.77-40.55-79.89-25.54q-2.86 1.48-5.49 3.21c27.91-10.81 60.06 0.95 74.08 28.15z"/>
						</g>
					</g>
					<g id="&lt;Group&gt;">
						<path id="&lt;Compound Path&gt;" fill-rule="evenodd" class="s2" d="m407.85-0.1q-0.21 0-0.42-0.02c-1.72-0.15-3.23-1.2-3.98-2.76l-11.27-23.65c-8.21-3.37-15.51-8.33-21.74-14.78-24.57-25.46-23.86-66.17 1.6-90.74 25.47-24.58 66.18-23.86 90.75 1.6 11.91 12.33 18.3 28.56 18 45.7-0.3 17.14-7.26 33.14-19.6 45.04-9.66 9.33-21.68 15.27-34.87 17.27l-14.5 20.3c-0.92 1.29-2.4 2.04-3.97 2.04zm8.76-140.18c-13.62 0-27.25 5.06-37.79 15.24-21.6 20.84-22.2 55.37-1.36 76.96 5.67 5.88 12.4 10.3 20 13.15 1.19 0.45 2.15 1.33 2.69 2.47l8.54 17.92 10.92-15.29c0.8-1.12 2.03-1.85 3.4-2.01 11.91-1.39 22.77-6.54 31.41-14.88 10.46-10.1 16.36-23.66 16.62-38.2 0.26-14.54-5.16-28.3-15.26-38.76-10.66-11.05-24.91-16.6-39.17-16.6z"/>
					</g>
					<g id="&lt;Group&gt;" style="opacity: .3">
						<path id="&lt;Path&gt;" class="s2" d="m424.23-27.08c-20.84-4.3-39.39-18.19-48.76-39.08-10.39-23.18-6.84-49.05 7.05-68.25q-3.72 2.62-7.09 5.86c-23.56 22.75-24.22 60.29-1.48 83.86 6.33 6.55 13.8 11.33 21.8 14.33l12.1 25.39 15.72-22.02q0.33-0.05 0.66-0.09z"/>
					</g>
					<g id="&lt;Group&gt;">
						<path id="&lt;Path&gt;" class="s8" d="m435.75-101.09c-5.13-5.13-13.45-4.21-18.58 0.92l-0.8 0.8-0.8-0.8c-5.13-5.13-13.45-6.05-18.59-0.92-5.13 5.14-5.13 13.46 0 18.59l0.8 0.8 16.14 16.13c1.35 1.36 3.55 1.36 4.9 0l16.13-16.13 0.8-0.8c5.14-5.13 5.14-13.45 0-18.59z"/>
					</g>
				</g>
			</g>
		</g>
	</g>
</svg>